<?xml version="1.0" encoding="UTF-8"?>
<svg id="Camada_2" data-name="Camada 2" xmlns="http://www.w3.org/2000/svg" viewBox="0 0 747.13 240.45">
  <defs>
    <style>
      .cls-1 {
        fill: #ff6333;
      }
    </style>
  </defs>
  <g id="Work">
    <g>
      <path class="cls-1" d="M115.68,80.15v76.5L31.88,240.45c-10.56-10.56-15.84-24.41-15.84-38.25s5.28-27.69,15.84-38.25l3.66-3.65,15.04-15.05L0,160.3h0v-76.5L83.8,0c21.13,21.13,21.13,55.37,0,76.5l-3.65,3.65-15.04,15.05,50.56-15.05Z"/>
      <g>
        <path class="cls-1" d="M236.09,50.31c-3.67-2.85-8.48-4.85-14.42-5.99-5.95-1.14-12.43-1.71-19.44-1.71s-14.26.53-20.78,1.59c-6.52,1.06-11.73,3.3-15.65,6.72-3.91,3.42-5.87,8.72-5.87,15.89v33.74c0,7.99,1.63,13.77,4.89,17.36,3.26,3.59,8.39,6.52,15.4,8.8l16.13,5.13c5.05,1.63,8.43,4.12,10.15,7.46,1.71,3.34,2.57,6.89,2.57,10.63v13.93c0,1.63-.24,3.06-.73,4.28-.49,1.22-1.31,2.2-2.44,2.93-1.14.73-2.85,1.1-5.13,1.1-3.42,0-5.66-.69-6.72-2.08-1.06-1.38-1.59-3.22-1.59-5.5v-24.94l-32.51,3.42v35.45c0,5.38,1.99,9.45,5.99,12.22,3.99,2.77,9.25,4.69,15.77,5.74,6.52,1.06,13.53,1.59,21.02,1.59,7.01,0,13.45-.65,19.31-1.96,5.87-1.3,10.59-3.75,14.18-7.33,3.58-3.58,5.38-8.8,5.38-15.65v-33.49c0-7.66-1.71-13.28-5.13-16.87-3.42-3.58-8.97-6.68-16.62-9.29l-18.33-6.11c-3.75-1.3-6.2-3.54-7.33-6.72-1.14-3.18-1.71-6.39-1.71-9.66v-11.25c0-5.05.69-8.31,2.08-9.78,1.38-1.47,3.54-2.2,6.48-2.2,2.77,0,4.81.61,6.11,1.83,1.3,1.22,1.96,4.28,1.96,9.17v23.22l32.51-4.4v-35.45c0-5.05-1.83-9-5.5-11.86Z"/>
        <path class="cls-1" d="M278.75,44.32l-31.29,151.57h32.76l4.15-26.16h20.45l4.98,26.16h33.98l-31.29-151.57h-33.74ZM294.64,82.46h1.22l.24,5.87,6.91,55.74h-16.22l7.6-55.74.24-5.87Z"/>
        <polygon class="cls-1" points="387.29 44.32 374.09 146.51 373.84 152.37 373.6 152.37 373.35 146.51 358.68 44.32 325.93 44.32 357.46 195.89 389.98 195.89 421.27 44.32 387.29 44.32"/>
        <path class="cls-1" d="M434.71,44.32l-31.29,151.57h32.76l4.15-26.16h20.45l4.98,26.16h33.98l-31.29-151.57h-33.74ZM450.6,82.46h1.22l.24,5.87,6.91,55.74h-16.22l7.6-55.74.24-5.87Z"/>
        <polygon class="cls-1" points="484.83 69.74 510.5 69.74 510.5 195.89 543.01 195.89 543.01 69.74 568.68 69.74 568.68 44.32 484.83 44.32 484.83 69.74"/>
        <polygon class="cls-1" points="573.57 69.74 599.23 69.74 599.23 195.89 631.75 195.89 631.75 69.74 657.42 69.74 657.42 44.32 573.57 44.32 573.57 69.74"/>
        <path class="cls-1" d="M737.72,50.31c-6.28-5.29-16.83-7.95-31.66-7.95s-25.14,2.65-31.41,7.95c-6.28,5.3-9.41,12.27-9.41,20.9v97.54c0,8.8,3.18,15.81,9.53,21.02,6.36,5.22,16.78,7.82,31.29,7.82s25.18-2.65,31.54-7.95c6.36-5.29,9.53-12.35,9.53-21.15v-97.3c0-8.64-3.14-15.6-9.41-20.9ZM715.35,159.71c0,3.91-.65,6.76-1.96,8.56-1.31,1.79-3.75,2.69-7.33,2.69s-5.79-.89-7.09-2.69c-1.31-1.79-1.96-4.56-1.96-8.31v-80.67c0-3.58.61-6.23,1.83-7.95s3.63-2.57,7.21-2.57,6.23.86,7.46,2.57,1.83,4.44,1.83,8.19v80.18Z"/>
      </g>
    </g>
  </g>
</svg>